<svg width="49" height="48" viewBox="0 0 49 48" fill="none" xmlns="http://www.w3.org/2000/svg">
<path d="M35.3586 47.2224C34.2783 47.7408 33.1911 48 32.0968 48C30.8622 48 29.6347 47.6988 28.4141 47.0963C27.2076 46.4939 25.9801 45.6953 24.7315 44.7005C23.6091 43.8179 22.4517 42.8722 21.2593 41.8634C20.0668 40.8546 18.8112 40.035 17.4924 39.4046C16.1456 38.7461 14.7217 38.2767 13.2205 37.9965C11.7194 37.7163 10.2744 37.4151 8.88552 37.0928C6.62682 36.5884 4.73288 35.8459 3.2037 34.8652C1.67452 33.8704 0.678451 32.3783 0.215488 30.3888C-0.233446 28.4133 0.0190797 26.641 0.973064 25.0718C1.94108 23.5026 3.32295 22.0175 5.11869 20.6165C6.22699 19.7198 7.39843 18.8161 8.633 17.9054C9.86757 16.9807 10.9548 15.937 11.8948 14.7741C12.8067 13.6112 13.5713 12.3292 14.1886 10.9282C14.8058 9.52715 15.4161 8.19615 16.0194 6.9352C17.0154 4.84764 18.1658 3.17338 19.4705 1.91243C20.7893 0.637478 22.4658 0 24.5 0C26.5342 0 28.2037 0.637478 29.5084 1.91243C30.8272 3.17338 31.9846 4.84063 32.9806 6.91419C33.5839 8.18914 34.1871 9.53415 34.7904 10.9492C35.4077 12.3503 36.1723 13.6252 37.0842 14.7741C38.0241 15.9229 39.1114 16.9597 40.346 17.8844C41.5946 18.8091 42.773 19.7198 43.8813 20.6165C45.6911 22.0175 47.073 23.5026 48.0269 25.0718C48.9809 26.641 49.2334 28.4133 48.7845 30.3888C48.3215 32.3783 47.3185 33.8704 45.7752 34.8652C44.2461 35.8459 42.3521 36.5884 40.0934 37.0928C38.7186 37.4151 37.2806 37.7163 35.7795 37.9965C34.2783 38.2767 32.8544 38.7391 31.5076 39.3835C30.1888 40.028 28.9332 40.8546 27.7407 41.8634C26.5483 42.8722 25.3838 43.8109 24.2475 44.6795C22.9989 45.6743 21.7643 46.4729 20.5438 47.0753C19.3373 47.6918 18.1167 48 16.8822 48C15.7879 48 14.7146 47.7478 13.6625 47.2434C11.7966 46.3608 10.555 45.0648 9.93771 43.3555C9.32043 41.6462 9.01178 39.6357 9.01178 37.324C9.01178 35.9229 9.03984 34.4518 9.09596 32.9107C9.16611 31.3695 9.03283 29.8774 8.69613 28.4343C8.37346 26.9912 7.84736 25.5902 7.11785 24.2312C6.38833 22.8581 5.72194 21.5271 5.11869 20.2382C4.12262 18.2067 3.53339 16.2802 3.35101 14.4588C3.16863 12.6375 3.71577 10.9352 4.99242 9.35201C6.25505 7.75482 7.79125 6.84413 9.60101 6.61997C11.4248 6.38179 13.4661 6.5289 15.7247 7.0613C17.0996 7.38354 18.5306 7.74081 20.0177 8.1331C21.5188 8.51138 23.0129 8.70053 24.5 8.70053C25.9731 8.70053 27.4602 8.51138 28.9613 8.1331C30.4624 7.74081 31.9074 7.38354 33.2963 7.0613C35.541 6.5289 37.5682 6.38179 39.3779 6.61997C41.1877 6.84413 42.7309 7.75482 44.0076 9.35201C45.2702 10.9492 45.8103 12.6585 45.6279 14.4799C45.4596 16.2872 44.8704 18.2137 43.8603 20.2592C43.257 21.5342 42.5906 22.8581 41.8611 24.2312C41.1316 25.5902 40.6125 26.9772 40.3039 28.3923C39.9672 29.8494 39.8269 31.3555 39.883 32.9107C39.9531 34.4518 39.9882 35.9229 39.9882 37.324C39.9882 39.6357 39.6726 41.6462 39.0412 43.3555C38.424 45.0648 37.1964 46.3538 35.3586 47.2224ZM33.4015 43.1874C34.117 42.8371 34.615 42.3538 34.8956 41.7373C35.1762 41.1208 35.3375 40.4343 35.3796 39.6778C35.4217 38.9212 35.4498 38.1576 35.4638 37.387C35.4638 35.8039 35.4428 34.1436 35.4007 32.4063C35.3586 30.669 35.5199 29.0018 35.8847 27.4046C36.2354 25.8354 36.8036 24.2802 37.5892 22.7391C38.3749 21.1839 39.1254 19.6708 39.8409 18.1996C40.1496 17.5271 40.4442 16.8476 40.7247 16.1611C41.0194 15.4606 41.1737 14.7741 41.1877 14.1016C41.2158 13.4291 40.9703 12.7846 40.4512 12.1681C39.9602 11.5517 39.385 11.1734 38.7256 11.0333C38.0662 10.8792 37.3648 10.8651 36.6212 10.9912C35.8777 11.1173 35.1341 11.2644 34.3906 11.4326C32.8333 11.7968 31.2059 12.1891 29.5084 12.6095C27.8109 13.0158 26.1414 13.2189 24.5 13.2189C22.8586 13.2189 21.1891 13.0158 19.4916 12.6095C17.7941 12.1891 16.1667 11.7968 14.6094 11.4326C13.8659 11.2785 13.1223 11.1384 12.3788 11.0123C11.6352 10.8862 10.9338 10.8932 10.2744 11.0333C9.61504 11.1734 9.02581 11.5587 8.50673 12.1891C8.01571 12.8056 7.77722 13.4501 7.79125 14.1226C7.8193 14.7811 7.97363 15.4606 8.25421 16.1611C8.54882 16.8476 8.85746 17.5342 9.18013 18.2207C9.88159 19.6918 10.6181 21.1979 11.3897 22.7391C12.1754 24.2802 12.7435 25.8284 13.0943 27.3835C13.459 28.9947 13.6204 30.669 13.5783 32.4063C13.5502 34.1436 13.5362 35.8039 13.5362 37.387C13.5502 38.1576 13.5783 38.9212 13.6204 39.6778C13.6625 40.4343 13.8238 41.1208 14.1044 41.7373C14.385 42.3538 14.883 42.8371 15.5985 43.1874C16.328 43.5236 17.0154 43.6077 17.6608 43.4396C18.3061 43.2855 18.9374 42.9912 19.5547 42.5569C20.172 42.1226 20.7823 41.6743 21.3855 41.2119C22.6201 40.2312 23.9178 39.1804 25.2786 38.0595C26.6535 36.9387 28.0634 36.035 29.5084 35.3485C31.0095 34.62 32.6159 34.0736 34.3274 33.7093C36.039 33.345 37.6524 33.0018 39.1675 32.6795C39.9111 32.4974 40.6476 32.3082 41.3771 32.1121C42.1066 31.9019 42.7379 31.5937 43.271 31.1874C43.8182 30.7811 44.1829 30.1786 44.3653 29.38C44.5477 28.5954 44.4846 27.9089 44.1759 27.3205C43.8673 26.718 43.4324 26.1646 42.8712 25.6602C42.31 25.1559 41.7278 24.6655 41.1246 24.1891C39.876 23.1944 38.5572 22.1716 37.1684 21.1208C35.7935 20.056 34.594 18.8792 33.5699 17.5902C32.5457 16.3152 31.6759 14.8932 30.9604 13.324C30.259 11.7548 29.5575 10.2557 28.8561 8.82662C28.5334 8.14011 28.1827 7.4676 27.8039 6.80911C27.4391 6.1366 26.9972 5.59019 26.4781 5.16988C25.959 4.73555 25.2997 4.51839 24.5 4.51839C23.6863 4.51839 23.0199 4.73555 22.5008 5.16988C21.9818 5.59019 21.5398 6.1366 21.1751 6.80911C20.8103 7.4676 20.4596 8.14011 20.1229 8.82662C19.4355 10.2557 18.734 11.7618 18.0185 13.345C17.3171 14.9142 16.4473 16.3292 15.4091 17.5902C14.399 18.8651 13.1995 20.035 11.8106 21.0998C10.4357 22.1646 9.12402 23.1944 7.87542 24.1891C7.27217 24.6655 6.68996 25.1559 6.12879 25.6602C5.56762 26.1646 5.13272 26.718 4.82407 27.3205C4.52946 27.9089 4.46633 28.5954 4.63468 29.38C4.81706 30.1786 5.1748 30.7811 5.70791 31.1874C6.25505 31.5937 6.88636 31.9019 7.60185 32.1121C8.33137 32.3082 9.0679 32.4974 9.81145 32.6795C11.3687 33.0298 12.9961 33.38 14.6936 33.7303C16.3911 34.0806 17.9834 34.613 19.4705 35.3275C20.9296 36.028 22.3325 36.9317 23.6793 38.0385C25.0261 39.1454 26.3308 40.1961 27.5934 41.1909C28.2107 41.6673 28.821 42.1226 29.4242 42.5569C30.0275 42.9912 30.6588 43.2925 31.3182 43.4606C31.9776 43.6287 32.672 43.5377 33.4015 43.1874Z" fill="url(#paint0_linear_619_756)"/>
<defs>
<linearGradient id="paint0_linear_619_756" x1="6.42623" y1="9.2" x2="35.1919" y2="48.1126" gradientUnits="userSpaceOnUse">
<stop stop-color="#CAE4FF"/>
<stop offset="1" stop-color="#6EB6FF"/>
</linearGradient>
</defs>
</svg>
