<svg width="93" height="72" viewBox="0 0 93 72" fill="none" xmlns="http://www.w3.org/2000/svg">
<path d="M10.3989 8.71676C14.9291 3.83921 29.1771 -4.89751 40.4926 3.49515C54.6371 13.9863 54.3052 11.8943 72.055 13.8268C86.2551 15.3729 91.4696 26.0671 92.3016 31.2207C93.3866 41.6622 90.2773 56.7648 76.5938 65.4358V49.7929H75.5925V49.7665L76.5938 49.7929L69.0845 28.7819H26.0315L19.6906 47.7918H19.5234V49.7929H18.5222V67.5414C10.968 62.9541 0.500065 47.4757 0.5 34.2574C0.500017 23.2246 4.89212 13.7194 10.3989 8.71676Z" fill="#2C2C2E"/>
<path d="M31.6803 35.6427L25.8296 50.4365H37.8966C37.8357 53.7448 39.6518 60.3615 47.404 60.3615C55.1562 60.3615 56.3629 53.7448 55.9972 50.4365H67.8814L62.9449 35.6427H31.6803Z" fill="#48484A"/>
<path d="M20.1608 68.4982H74.5765V51.1874H58.3778C58.3696 52.995 57.9838 55.1175 56.8545 57.0195C55.1764 59.8456 52.0342 61.8912 46.9722 61.8912C41.9106 61.8912 38.7465 59.8478 37.0273 57.04C35.8602 55.1339 35.4376 53.0016 35.4003 51.1874H20.1608V68.4982ZM20.8912 47.6855H37.2522C37.7616 47.6855 38.2462 47.907 38.579 48.2923C38.9118 48.6777 39.0603 49.1889 38.9858 49.6924C38.7626 51.198 38.9246 53.4285 40.0163 55.2119C41.0279 56.864 42.9886 58.3894 46.9722 58.3894C50.9552 58.3894 52.8709 56.8662 53.841 55.2324C54.8937 53.4593 55.0169 51.234 54.765 49.7237C54.6805 49.2163 54.8235 48.6976 55.1561 48.305C55.489 47.9123 55.9786 47.6855 56.4937 47.6855H73.7777L67.1914 30.5731H26.9837L20.8912 47.6855ZM64.7226 9.60121C65.3764 8.88838 66.4849 8.8403 67.1983 9.49373C67.9115 10.1472 67.9597 11.2549 67.3058 11.9677L58.5783 21.4814C57.9244 22.1943 56.8159 22.2423 56.1026 21.5889C55.3895 20.9355 55.3412 19.8277 55.995 19.115L64.7226 9.60121ZM48.3303 20.1468C48.3165 21.1136 47.5202 21.8859 46.5527 21.8723C45.5853 21.8584 44.8123 21.0637 44.826 20.0969L48.3303 20.1468ZM25.7536 9.29538C26.4224 8.68275 27.4391 8.68643 28.1022 9.27682L28.2293 9.40286L36.9569 18.9176C37.6108 19.6304 37.5627 20.7371 36.8493 21.3906C36.136 22.0439 35.0285 21.9958 34.3746 21.2831L25.6461 11.7693L25.5317 11.6306C25.0012 10.9193 25.0853 9.9079 25.7536 9.29538ZM46.7844 5.46526C47.6916 5.47805 48.4281 6.1777 48.5053 7.0618L48.5122 7.2406L48.3303 20.1468L44.826 20.0969L45.0078 7.19175L45.0196 7.01294C45.1216 6.13133 45.8774 5.45266 46.7844 5.46526ZM78.0808 70.2491C78.0808 71.2161 77.2963 72 76.3287 72H18.4087C17.441 72 16.6565 71.2161 16.6565 70.2491V49.4364C16.6565 49.2365 16.6911 49.0376 16.7582 48.8492L24.0973 28.235L24.1481 28.107C24.4282 27.4806 25.0528 27.0713 25.7478 27.0713H68.3951L68.53 27.0761C69.1995 27.1277 69.7858 27.5593 70.0299 28.1929L77.9645 48.8082C78.0416 49.0087 78.0808 49.2217 78.0808 49.4364V70.2491Z" fill="#8E8E93"/>
</svg>
